<svg width="43" height="25" viewBox="0 0 43 25" fill="none" xmlns="http://www.w3.org/2000/svg">
<path d="M10.2656 1.1875V24H6.125V6.01562L0.640625 7.82812V4.48438L9.79688 1.1875H10.2656ZM18.3125 21.9844C18.3125 21.3594 18.526 20.8333 18.9531 20.4062C19.3802 19.9792 19.9583 19.7656 20.6875 19.7656C21.4167 19.7656 21.9948 19.9792 22.4219 20.4062C22.849 20.8333 23.0625 21.3594 23.0625 21.9844C23.0625 22.599 22.849 23.1198 22.4219 23.5469C21.9948 23.9635 21.4167 24.1719 20.6875 24.1719C19.9583 24.1719 19.3802 23.9635 18.9531 23.5469C18.526 23.1198 18.3125 22.599 18.3125 21.9844ZM42.0781 10.6719V14.5C42.0781 16.25 41.901 17.7448 41.5469 18.9844C41.1927 20.224 40.6823 21.2396 40.0156 22.0312C39.349 22.8125 38.5521 23.3906 37.625 23.7656C36.6979 24.1302 35.6667 24.3125 34.5312 24.3125C33.625 24.3125 32.7812 24.1979 32 23.9688C31.2188 23.7292 30.5156 23.3646 29.8906 22.875C29.276 22.375 28.7448 21.7396 28.2969 20.9688C27.8594 20.1979 27.5208 19.276 27.2812 18.2031C27.0521 17.1302 26.9375 15.8958 26.9375 14.5V10.6719C26.9375 8.92188 27.1146 7.43229 27.4688 6.20312C27.8333 4.97396 28.349 3.96875 29.0156 3.1875C29.6823 2.40625 30.4792 1.83854 31.4062 1.48438C32.3333 1.11979 33.3646 0.9375 34.5 0.9375C35.4167 0.9375 36.2604 1.05208 37.0312 1.28125C37.8125 1.51042 38.5104 1.86979 39.125 2.35938C39.75 2.83854 40.2812 3.46354 40.7188 4.23438C41.1562 4.99479 41.4896 5.91146 41.7188 6.98438C41.9583 8.04688 42.0781 9.27604 42.0781 10.6719ZM37.9531 15.0625V10.0938C37.9531 9.21875 37.901 8.45833 37.7969 7.8125C37.7031 7.15625 37.5625 6.59896 37.375 6.14062C37.1875 5.68229 36.9531 5.3125 36.6719 5.03125C36.3906 4.73958 36.0677 4.52604 35.7031 4.39062C35.3385 4.25521 34.9375 4.1875 34.5 4.1875C33.9583 4.1875 33.474 4.29688 33.0469 4.51562C32.6198 4.72396 32.2604 5.05729 31.9688 5.51562C31.6771 5.97396 31.4531 6.58333 31.2969 7.34375C31.151 8.09375 31.0781 9.01042 31.0781 10.0938V15.0625C31.0781 15.9375 31.125 16.7031 31.2188 17.3594C31.3229 18.0156 31.4688 18.5781 31.6562 19.0469C31.8542 19.5156 32.0885 19.901 32.3594 20.2031C32.6406 20.4948 32.9635 20.7135 33.3281 20.8594C33.6927 20.9948 34.0938 21.0625 34.5312 21.0625C35.0833 21.0625 35.5677 20.9531 35.9844 20.7344C36.4115 20.5156 36.7708 20.1719 37.0625 19.7031C37.3542 19.224 37.5729 18.6042 37.7188 17.8438C37.875 17.0729 37.9531 16.1458 37.9531 15.0625Z" fill="url(#paint0_linear_3_2)"/>
<defs>
<linearGradient id="paint0_linear_3_2" x1="21" y1="-6" x2="21" y2="32" gradientUnits="userSpaceOnUse">
<stop stop-color="white"/>
<stop offset="1" stop-color="white" stop-opacity="0"/>
</linearGradient>
</defs>
</svg>
