<svg width="188" height="44" viewBox="0 0 188 44" fill="none" xmlns="http://www.w3.org/2000/svg">
<path d="M0.944 43L18.696 3.8H24.24L42.048 43H36.168L20.32 6.936H22.56L6.712 43H0.944ZM8.504 33.2L10.016 28.72H32.08L33.704 33.2H8.504ZM59.1022 43.336C56.2275 43.336 53.6515 42.7013 51.3742 41.432C49.1342 40.1627 47.3609 38.3893 46.0542 36.112C44.7475 33.8347 44.0942 31.184 44.0942 28.16C44.0942 25.136 44.7475 22.504 46.0542 20.264C47.3609 17.9867 49.1342 16.2133 51.3742 14.944C53.6515 13.6747 56.2275 13.04 59.1022 13.04C61.6035 13.04 63.8622 13.6 65.8782 14.72C67.8942 15.84 69.4995 17.52 70.6942 19.76C71.9262 22 72.5422 24.8 72.5422 28.16C72.5422 31.52 71.9449 34.32 70.7502 36.56C69.5929 38.8 68.0062 40.4987 65.9902 41.656C63.9742 42.776 61.6782 43.336 59.1022 43.336ZM59.5502 38.632C61.4169 38.632 63.0969 38.2027 64.5902 37.344C66.1209 36.4853 67.3155 35.272 68.1742 33.704C69.0702 32.0987 69.5182 30.2507 69.5182 28.16C69.5182 26.032 69.0702 24.2027 68.1742 22.672C67.3155 21.104 66.1209 19.8907 64.5902 19.032C63.0969 18.1733 61.4169 17.744 59.5502 17.744C57.6462 17.744 55.9475 18.1733 54.4542 19.032C52.9609 19.8907 51.7662 21.104 50.8702 22.672C49.9742 24.2027 49.5262 26.032 49.5262 28.16C49.5262 30.2507 49.9742 32.0987 50.8702 33.704C51.7662 35.272 52.9609 36.4853 54.4542 37.344C55.9475 38.2027 57.6462 38.632 59.5502 38.632ZM69.6862 43V34.992L70.0222 28.104L69.4622 21.216V1.448H74.8382V43H69.6862ZM122.138 13.04C124.527 13.04 126.637 13.5067 128.466 14.44C130.295 15.3733 131.714 16.792 132.722 18.696C133.767 20.6 134.29 23.008 134.29 25.92V43H128.914V26.536C128.914 23.6613 128.242 21.496 126.898 20.04C125.554 18.584 123.669 17.856 121.242 17.856C119.45 17.856 117.882 18.2293 116.538 18.976C115.194 19.7227 114.149 20.824 113.402 22.28C112.693 23.736 112.338 25.5467 112.338 27.712V43H106.962V26.536C106.962 23.6613 106.29 21.496 104.946 20.04C103.639 18.584 101.754 17.856 99.2901 17.856C97.5354 17.856 95.9861 18.2293 94.6421 18.976C93.2981 19.7227 92.2527 20.824 91.5061 22.28C90.7594 23.736 90.3861 25.5467 90.3861 27.712V43H85.0101V13.32H90.1621V21.216L89.3221 19.2C90.2554 17.2587 91.6927 15.7467 93.6341 14.664C95.5754 13.5813 97.8341 13.04 100.41 13.04C103.247 13.04 105.693 13.7493 107.746 15.168C109.799 16.5493 111.143 18.6587 111.778 21.496L109.594 20.6C110.49 18.3227 112.058 16.4933 114.298 15.112C116.538 13.7307 119.151 13.04 122.138 13.04ZM144.182 43V13.32H149.558V43H144.182ZM146.87 7.608C145.825 7.608 144.947 7.272 144.238 6.6C143.566 5.928 143.23 5.10666 143.23 4.136C143.23 3.128 143.566 2.288 144.238 1.616C144.947 0.943998 145.825 0.607998 146.87 0.607998C147.915 0.607998 148.774 0.943998 149.446 1.616C150.155 2.25066 150.51 3.05333 150.51 4.024C150.51 5.032 150.174 5.89066 149.502 6.6C148.83 7.272 147.953 7.608 146.87 7.608ZM175.671 13.04C178.097 13.04 180.225 13.5067 182.055 14.44C183.921 15.3733 185.377 16.792 186.423 18.696C187.468 20.6 187.991 23.008 187.991 25.92V43H182.615V26.536C182.615 23.6613 181.905 21.496 180.487 20.04C179.105 18.584 177.145 17.856 174.607 17.856C172.703 17.856 171.041 18.2293 169.623 18.976C168.204 19.7227 167.103 20.824 166.319 22.28C165.572 23.736 165.199 25.5467 165.199 27.712V43H159.823V13.32H164.975V21.328L164.135 19.2C165.105 17.2587 166.599 15.7467 168.615 14.664C170.631 13.5813 172.983 13.04 175.671 13.04Z" fill="url(#paint0_linear_4_19)"/>
<defs>
<linearGradient id="paint0_linear_4_19" x1="97" y1="-11" x2="97" y2="57" gradientUnits="userSpaceOnUse">
<stop stop-color="#EBFF00"/>
<stop offset="1" stop-color="white" stop-opacity="0"/>
</linearGradient>
</defs>
</svg>
