<svg width="38" height="38" viewBox="0 0 38 38" fill="none" xmlns="http://www.w3.org/2000/svg">
<path d="M36.8125 7.20872L32.9418 4.74762L32.3956 5.65191L28.804 5.54028L28.8972 4.91091L24.6341 2.82625L24.0308 6.91956L22.8445 5.84963L23.2726 3.09997L18.788 2.29603L18.5262 3.94666L18.5482 2.72116L15.0088 4.06125L15.3336 1.99262L10.8496 1.1875L10.7611 1.69991L6.25159 3.95259L6.25931 4.41216L1.1875 4.78622L3.52391 9.40203L1.27181 11.1465L4.04225 16.9931H3.17537L5.74928 34.235C10.6768 37.6717 27.2074 37.6717 32.1355 34.235L34.6103 17.6492L36.673 13.1842L34.4892 11.0889L36.8125 7.20872ZM33.2892 6.35728L35.2112 7.581L33.9868 9.64428L34.2707 9.02975L32.5731 7.61128L33.2892 6.35728ZM32.8807 9.34028L31.6017 11.8673L29.8033 10.5741L30.9106 7.76091L32.8807 9.34028ZM28.6514 6.6785L30.0627 6.71769L28.2388 11.3068L28.6514 6.6785ZM25.4956 4.54456L27.6438 5.58778L27.0631 12.0323L25.5407 10.9678L26.1274 8.68122L25.0758 7.81494L25.4956 4.54456ZM22.9793 7.52044L24.8312 9.10337L24.526 10.3235L23.2358 9.53503L23.1889 10.4821C23.1889 10.4821 22.6397 15.2748 22.2977 16.8435C22.0584 17.9396 21.0128 21.144 21.0128 21.144C21.0128 21.144 21.1013 18.2246 21.1737 17.2538C21.2545 16.1785 21.5228 14.038 21.7117 12.9776C21.9587 11.5983 22.9793 7.52044 22.9793 7.52044ZM18.8813 11.8501C18.9673 9.78441 19.7143 3.62544 19.7143 3.62544L21.961 4.02859C21.961 4.02859 20.2356 14.7416 19.9643 18.3451C19.8865 19.3812 19.9156 22.5007 19.9156 22.5007C19.738 22.5144 19.5575 22.5209 19.377 22.5275L19.0184 19.3592C19.0178 19.3592 18.8035 13.7263 18.8813 11.8501ZM18.243 22.5192C18.1693 22.515 18.0951 22.512 18.0221 22.5067L17.8725 19.1894L18.243 22.5192ZM17.3761 4.36347L17.7454 11.948L17.6991 14.1033L16.8655 13.3861L16.3928 7.85353L15.1175 7.1345L15.07 5.26656L17.3761 4.36347ZM11.7753 2.51691L14.022 2.92066L13.563 6.30444L11.3846 5.23153L11.7753 2.51691ZM9.77491 3.42653C9.77491 3.42653 9.84141 7.13212 9.92453 8.36416C9.98747 9.29159 10.3128 12.0614 10.3128 12.0614L9.90791 9.75412L8.531 9.34503L7.47116 6.74025L7.39634 4.63481L9.77491 3.42653ZM3.04238 5.78491L5.70237 5.5955L7.13628 8.91872L5.16028 8.29409L5.65072 11.6357L3.04238 5.78491ZM5.07241 16.9931L2.58697 11.549L3.97694 10.4821L5.79381 16.9931H5.07241ZM8.26797 16.9931L8.25609 16.9658L6.70106 11.0764L6.51166 9.92572L8.89378 10.6501C8.89378 10.6501 9.45428 13.4894 9.71019 14.4186C9.89069 15.0735 10.5753 16.9931 10.5753 16.9931H8.26797ZM10.6358 17.1742L10.865 17.8558L11.739 19.7612C11.0752 18.9953 10.6816 18.1153 10.6358 17.1742ZM11.0687 8.29884L11.3578 5.44291L11.5205 6.30444L12.315 16.8376L11.0687 8.29884ZM13.8326 17.9615C13.7584 18.7714 13.721 21.2141 13.721 21.2141L13.2115 20.2576C13.2115 20.2576 13.3137 19.3479 13.3261 19.0439C13.4176 16.8536 13.3867 12.4622 13.2335 10.2748C13.1789 9.50297 12.8345 7.20516 12.8345 7.20516L15.3413 8.56306L15.6863 12.2948L14.8063 11.4475C14.8063 11.4475 13.9828 16.3216 13.8326 17.9615ZM15.0581 16.9498C15.1252 16.1328 15.5111 13.702 15.5111 13.702L17.0531 15.0593C17.0531 15.0593 16.7699 18.2014 16.736 19.2523C16.7153 19.9067 16.7651 21.8714 16.7651 21.8714L16.8079 22.3517C16.1703 22.2418 15.5437 22.0759 14.9352 21.8559C14.9346 21.8559 14.9578 18.1717 15.0581 16.9498ZM20.4131 34.2718L19.5878 33.8004L19.2417 33.6057C19.225 33.6432 19.1979 33.6751 19.1636 33.6977C19.1292 33.7202 19.0892 33.7324 19.0481 33.7327L18.8326 33.7345C18.7915 33.7338 18.7515 33.7213 18.7174 33.6985C18.6832 33.6756 18.6564 33.6434 18.6402 33.6057L18.2946 33.8016L17.4675 34.2718V32.392L18.2958 32.8629L18.6414 33.0588C18.6571 33.0211 18.6837 32.9889 18.7177 32.9663C18.7517 32.9437 18.7917 32.9317 18.8326 32.9318L19.0493 32.93C19.0906 32.9308 19.1307 32.9435 19.1649 32.9665C19.1992 32.9896 19.226 33.022 19.2423 33.06L19.5878 32.8629L20.4131 32.392L20.4143 33.3307L20.4131 34.2718ZM22.5269 27.8291C22.496 27.8474 22.4678 27.87 22.4432 27.8962C22.5318 28.2113 22.577 28.5372 22.5773 28.8646C22.5756 30.8524 20.9487 32.4639 18.9418 32.4657C16.9326 32.4663 15.3045 30.8548 15.3045 28.8646C15.3057 28.5285 15.3526 28.2055 15.4381 27.8973C15.4143 27.8703 15.386 27.8476 15.3544 27.8303C15.2618 27.7756 15.2778 27.8261 15.2778 27.6967V27.6296C15.2778 27.5761 15.2837 27.5654 15.3122 27.5512C15.3633 27.5257 15.4149 27.5001 15.4696 27.4841C15.5088 27.4687 15.5533 27.4562 15.599 27.4455C15.8826 26.7951 16.3502 26.2418 16.9443 25.8538C17.5383 25.4658 18.2329 25.26 18.9424 25.2617C19.6513 25.2608 20.345 25.4669 20.9384 25.8548C21.5318 26.2426 21.9991 26.7953 22.2828 27.4449C22.3298 27.4568 22.3731 27.4692 22.4141 27.4823C22.4675 27.5013 22.5203 27.5251 22.5708 27.5506C22.5993 27.5654 22.6058 27.5767 22.6064 27.6302L22.6058 27.6984C22.6047 27.8267 22.6213 27.7756 22.5269 27.8291ZM24.643 21.0265C23.8349 21.5347 22.8748 21.9343 21.812 22.1962L22.04 21.6404C22.04 21.6404 23.1343 18.1497 23.4377 16.9694C23.5006 16.7212 23.6081 16.2183 23.6526 15.9665C23.848 14.855 24.2642 11.4938 24.2642 11.4938L26.6332 13.1183C26.6332 13.1183 26.1879 15.7077 25.9807 16.5585C25.7046 17.6914 24.643 21.0265 24.643 21.0265ZM29.0379 13.8991C28.94 14.6223 28.5202 16.7705 28.5202 16.7705L28.3498 16.9931H27.2603C27.2603 17.8131 26.9871 18.5885 26.5086 19.288L26.3821 19.4423L27.4081 15.3164L29.2196 11.9023C29.2196 11.9023 29.105 13.4021 29.0379 13.8991ZM31.3571 15.1311C31.2615 15.6008 30.8958 16.9931 30.8958 16.9931H29.6216C29.6216 16.9931 30.0176 15.0557 30.115 14.4038C30.1916 13.8908 30.3383 12.3405 30.3383 12.3405L31.6421 13.3523C31.6421 13.3523 31.4468 14.69 31.3571 15.1311ZM35.1779 13.3724L33.5914 16.9931H31.9972C31.9972 16.9931 32.3439 15.9594 32.4277 15.6061C32.5381 15.1347 32.7382 13.6925 32.7382 13.6925L33.747 11.9747L35.1779 13.3724Z" fill="#707070"/>
<path d="M17.3054 27.3558C17.7555 27.3956 18.1301 27.4948 18.4371 27.6515C18.7263 27.7964 19.1573 27.7964 19.4459 27.6527C19.7529 27.4972 20.1281 27.3956 20.5776 27.3558C20.8572 27.3321 21.3358 27.3232 21.7686 27.3636C21.492 26.8558 21.0832 26.4322 20.5856 26.1375C20.088 25.8429 19.5201 25.6882 18.9418 25.6898C18.3634 25.6879 17.7952 25.8425 17.2975 26.1371C16.7997 26.4318 16.3909 26.8555 16.1144 27.3636C16.5106 27.3306 16.9088 27.3281 17.3054 27.3558ZM21.4017 29.6335C20.9914 29.7849 20.5398 29.7801 20.1329 29.6198C19.9014 29.5317 19.7025 29.3748 19.5629 29.1703C19.2915 28.7761 19.374 28.5285 19.2321 28.1913C19.1116 27.8968 18.772 27.8968 18.6473 28.1913C18.5089 28.5285 18.5891 28.7761 18.3178 29.1692C18.1646 29.3948 17.9716 29.5313 17.7478 29.6198C17.344 29.7801 16.8892 29.7855 16.4801 29.6335C16.1007 29.4933 15.8478 29.2167 15.7355 28.7939C15.7344 28.8159 15.7344 28.8414 15.7349 28.8646C15.7349 30.6197 17.1689 32.0429 18.9412 32.0411C20.71 32.0411 22.1463 30.6185 22.1463 28.8646C22.1469 28.8414 22.1463 28.8153 22.1457 28.7915C22.0346 29.2184 21.7811 29.4916 21.4017 29.6335ZM19.8847 30.9261C19.643 31.122 19.2927 31.2378 18.9418 31.236C18.5897 31.2378 18.2406 31.122 17.9983 30.9261C17.7561 30.7319 17.6249 30.4576 17.6539 30.2064C17.7917 30.4202 17.9864 30.5787 18.2097 30.6856C18.4335 30.7943 18.6877 30.8465 18.9418 30.8465C19.1959 30.8465 19.4489 30.7925 19.6727 30.6844C19.8965 30.5793 20.0901 30.4214 20.2284 30.207C20.2581 30.4588 20.1275 30.7319 19.8847 30.9261Z" fill="#707070"/>
</svg>
