<svg width="561" height="93" viewBox="0 0 561 93" fill="none" xmlns="http://www.w3.org/2000/svg">
<path d="M47.504 92.024C40.6773 92.024 34.3627 90.9147 28.56 88.696C22.8427 86.392 17.8507 83.192 13.584 79.096C9.40267 74.9147 6.11733 70.0507 3.728 64.504C1.33867 58.9573 0.144 52.856 0.144 46.2C0.144 39.544 1.33867 33.4427 3.728 27.896C6.11733 22.3493 9.44533 17.528 13.712 13.432C17.9787 9.25066 22.9707 6.05066 28.688 3.83199C34.4907 1.528 40.8053 0.375999 47.632 0.375999C54.544 0.375999 60.9013 1.57067 66.704 3.96C72.592 6.26399 77.584 9.71999 81.68 14.328L73.36 22.392C69.9467 18.808 66.1067 16.1627 61.84 14.456C57.5733 12.664 53.008 11.768 48.144 11.768C43.1093 11.768 38.416 12.6213 34.064 14.328C29.7973 16.0347 26.0853 18.424 22.928 21.496C19.7707 24.568 17.296 28.2373 15.504 32.504C13.7973 36.6853 12.944 41.2507 12.944 46.2C12.944 51.1493 13.7973 55.7573 15.504 60.024C17.296 64.2053 19.7707 67.832 22.928 70.904C26.0853 73.976 29.7973 76.3653 34.064 78.072C38.416 79.7787 43.1093 80.632 48.144 80.632C53.008 80.632 57.5733 79.7787 61.84 78.072C66.1067 76.28 69.9467 73.5493 73.36 69.88L81.68 77.944C77.584 82.552 72.592 86.0507 66.704 88.44C60.9013 90.8293 54.5013 92.024 47.504 92.024ZM84.247 91L124.823 1.39999H137.495L178.199 91H164.759L128.535 8.56799H133.655L97.431 91H84.247ZM101.527 68.6L104.983 58.36H155.415L159.127 68.6H101.527ZM191.565 91V1.39999H226.509C234.36 1.39999 241.058 2.63733 246.605 5.112C252.152 7.58666 256.418 11.1707 259.405 15.864C262.392 20.5573 263.885 26.1467 263.885 32.632C263.885 39.1173 262.392 44.7067 259.405 49.4C256.418 54.008 252.152 57.592 246.605 60.152C241.058 62.6267 234.36 63.864 226.509 63.864H198.605L204.365 57.848V91H191.565ZM204.365 59.128L198.605 52.728H226.125C234.317 52.728 240.504 50.9787 244.685 47.48C248.952 43.9813 251.085 39.032 251.085 32.632C251.085 26.232 248.952 21.2827 244.685 17.784C240.504 14.2853 234.317 12.536 226.125 12.536H198.605L204.365 6.13599V59.128ZM297.607 91V12.536H266.887V1.39999H340.999V12.536H310.279V91H297.607ZM336.872 91L377.448 1.39999H390.12L430.824 91H417.384L381.16 8.56799H386.28L350.056 91H336.872ZM354.152 68.6L357.608 58.36H408.04L411.752 68.6H354.152ZM444.19 91V1.39999H456.99V91H444.19ZM483.815 91V1.39999H494.311L553.575 75H548.071V1.39999H560.871V91H550.375L491.111 17.4H496.615V91H483.815Z" fill="url(#paint0_linear_3_4)"/>
<defs>
<linearGradient id="paint0_linear_3_4" x1="284.5" y1="-33" x2="284.5" y2="123" gradientUnits="userSpaceOnUse">
<stop stop-color="#EBFF00"/>
<stop offset="1" stop-color="white" stop-opacity="0"/>
</linearGradient>
</defs>
</svg>
