<svg width="37" height="37" viewBox="0 0 37 37" fill="currentColor" xmlns="http://www.w3.org/2000/svg">
<path d="M6.9375 32.375C6.29514 32.375 5.74888 32.1499 5.29871 31.6998C4.84855 31.2496 4.62398 30.7038 4.625 30.0625V27.1333L10.7917 21.6604V32.375H6.9375ZM12.3333 32.375V26.2083H24.6667V32.375H12.3333ZM26.2083 32.375V19.7333L19.6177 13.875L24.2813 9.75105L31.6042 16.2646C31.8611 16.4958 32.0538 16.7595 32.1823 17.0555C32.3108 17.3515 32.375 17.666 32.375 17.999V30.0625C32.375 30.7049 32.1499 31.2511 31.6998 31.7013C31.2496 32.1515 30.7038 32.376 30.0625 32.375H26.2083ZM4.625 25.0521V17.999C4.625 17.6649 4.68924 17.3438 4.81771 17.0354C4.94618 16.7271 5.13889 16.4702 5.39584 16.2646L16.9583 6.01251C17.1639 5.80696 17.4018 5.65947 17.6721 5.57005C17.9424 5.48064 18.2184 5.43541 18.5 5.43439C18.7826 5.43439 19.0586 5.47961 19.3279 5.57005C19.5972 5.6605 19.8351 5.80798 20.0417 6.01251L23.125 8.74897L4.625 25.0521Z" fill="#707070"/>
</svg>
