<svg width="38" height="38" viewBox="0 0 38 38" fill="none" xmlns="http://www.w3.org/2000/svg">
<path d="M17.8125 30.0833C17.8125 29.7684 17.9376 29.4663 18.1603 29.2436C18.383 29.0209 18.6851 28.8958 19 28.8958H28.5C28.605 28.8958 28.7057 28.8541 28.7799 28.7799C28.8541 28.7057 28.8958 28.605 28.8958 28.5V9.49999C28.8958 9.39501 28.8541 9.29433 28.7799 9.22009C28.7057 9.14586 28.605 9.10416 28.5 9.10416H19C18.6851 9.10416 18.383 8.97905 18.1603 8.75635C17.9376 8.53365 17.8125 8.2316 17.8125 7.91666C17.8125 7.60171 17.9376 7.29967 18.1603 7.07697C18.383 6.85427 18.6851 6.72916 19 6.72916H28.5C30.0295 6.72916 31.2708 7.97049 31.2708 9.49999V28.5C31.2708 29.2349 30.9789 29.9396 30.4593 30.4593C29.9396 30.9789 29.2349 31.2708 28.5 31.2708H19C18.6851 31.2708 18.383 31.1457 18.1603 30.923C17.9376 30.7003 17.8125 30.3983 17.8125 30.0833Z" fill="#707070"/>
<path d="M24.719 20.7654C24.719 21.1853 24.5522 21.5881 24.2553 21.885C23.9583 22.1819 23.5556 22.3488 23.1357 22.3488H15.447C15.4106 22.9124 15.3647 23.4729 15.3109 24.0366L15.2634 24.5195C15.2457 24.7015 15.1843 24.8766 15.0846 25.0298C14.9848 25.183 14.8495 25.31 14.6903 25.3998C14.531 25.4896 14.3524 25.5397 14.1696 25.5457C13.9869 25.5518 13.8053 25.5137 13.6404 25.4347C10.7461 24.0475 8.12587 22.1493 5.90585 19.8313L5.85835 19.7822C5.65456 19.5696 5.54077 19.2866 5.54077 18.9921C5.54077 18.6976 5.65456 18.4146 5.85835 18.202L5.90585 18.1529C8.12584 15.8349 10.746 13.9366 13.6404 12.5495C13.8053 12.4705 13.9869 12.4324 14.1696 12.4384C14.3524 12.4445 14.531 12.4946 14.6903 12.5844C14.8495 12.6742 14.9848 12.8011 15.0846 12.9544C15.1843 13.1076 15.2457 13.2827 15.2634 13.4647L15.3109 13.9476C15.3647 14.5097 15.4106 15.0718 15.447 15.6354H23.1357C23.5556 15.6354 23.9583 15.8022 24.2553 16.0992C24.5522 16.3961 24.719 16.7988 24.719 17.2188V20.7654Z" fill="#707070"/>
</svg>
