<svg width="32" height="32" viewBox="0 0 32 32" fill="none" xmlns="http://www.w3.org/2000/svg">
<path d="M25.5334 19.6L28.4 22.4L22.2667 28.5333C22.0222 28.7778 21.7387 28.9724 21.416 29.1173C21.0934 29.2622 20.7547 29.3342 20.4 29.3333H20C19.6222 29.3333 19.3054 29.2053 19.0494 28.9493C18.7934 28.6933 18.6658 28.3769 18.6667 28V27.6C18.6667 27.2444 18.7334 26.9053 18.8667 26.5827C19 26.26 19.1889 25.9769 19.4334 25.7333L25.5334 19.6ZM29.3667 21.4667L26.5334 18.6333L27.4667 17.7C27.7334 17.4333 28.0556 17.3 28.4334 17.3C28.8111 17.3 29.1222 17.4333 29.3667 17.7L30.3 18.6667C30.5445 18.9333 30.6667 19.2502 30.6667 19.6173C30.6667 19.9844 30.5445 20.2898 30.3 20.5333L29.3667 21.4667ZM5.33336 26.6667C4.60002 26.6667 3.97202 26.4053 3.44936 25.8827C2.92669 25.36 2.6658 24.7324 2.66669 24V8C2.66669 7.26666 2.92802 6.63866 3.45069 6.116C3.97336 5.59333 4.60091 5.33244 5.33336 5.33333H12.2334C12.5889 5.33333 12.928 5.4 13.2507 5.53333C13.5734 5.66666 13.8565 5.85555 14.1 6.1L16 8H26.6667C27.4 8 28.028 8.26133 28.5507 8.784C29.0734 9.30666 29.3342 9.93422 29.3334 10.6667V14.5667C28.6445 14.5667 27.9667 14.6502 27.3 14.8173C26.6334 14.9844 26.0556 15.312 25.5667 15.8L14.7667 26.6667H5.33336Z" fill="#707070"/>
</svg>
