<svg width="20" height="12" viewBox="0 0 40 32" fill="none" xmlns="http://www.w3.org/2000/svg">
<path d="M8 12.8C7.99891 10.8054 8.77446 8.86 10.2189 7.2342C11.6633 5.6084 13.7049 4.3829 16.06 3.728C15.9688 3.2709 16.0026 2.80341 16.1592 2.35778C16.3158 1.91216 16.5913 1.49901 16.9668 1.14685C17.3423 0.794682 17.8089 0.511884 18.3343 0.317964C18.8597 0.124045 19.4314 0.0236206 20.01 0.0236206C20.5886 0.0236206 21.1603 0.124045 21.6857 0.317964C22.2111 0.511884 22.6777 0.794682 23.0532 1.14685C23.4287 1.49901 23.7042 1.91216 23.8608 2.35778C24.0174 2.80341 24.0512 3.2709 23.96 3.728C26.3113 4.38559 28.3486 5.61223 29.7892 7.23781C31.2299 8.86338 32.0025 10.8073 32 12.8V22.4L38 25.6V27.2H2V25.6L8 22.4V12.8ZM24 28.8C24 29.6487 23.5786 30.4626 22.8284 31.0627C22.0783 31.6629 21.0609 32 20 32C18.9391 32 17.9217 31.6629 17.1716 31.0627C16.4214 30.4626 16 29.6487 16 28.8H24Z" fill="#959090"/>
</svg>
