<svg width="37" height="38" viewBox="0 0 37 38" fill="none" xmlns="http://www.w3.org/2000/svg">
<path d="M18.5 15.8333C20.1355 15.8333 21.704 15.1661 22.8605 13.9783C24.0169 12.7906 24.6666 11.1797 24.6666 9.5C24.6666 7.82029 24.0169 6.20938 22.8605 5.02165C21.704 3.83392 20.1355 3.16666 18.5 3.16666C16.8645 3.16666 15.296 3.83392 14.1395 5.02165C12.983 6.20938 12.3333 7.82029 12.3333 9.5C12.3333 11.1797 12.983 12.7906 14.1395 13.9783C15.296 15.1661 16.8645 15.8333 18.5 15.8333ZM8.47915 20.5833C9.50134 20.5833 10.4817 20.1663 11.2045 19.424C11.9273 18.6816 12.3333 17.6748 12.3333 16.625C12.3333 15.5752 11.9273 14.5684 11.2045 13.826C10.4817 13.0837 9.50134 12.6667 8.47915 12.6667C7.45696 12.6667 6.47664 13.0837 5.75384 13.826C5.03104 14.5684 4.62498 15.5752 4.62498 16.625C4.62498 17.6748 5.03104 18.6816 5.75384 19.424C6.47664 20.1663 7.45696 20.5833 8.47915 20.5833ZM32.375 16.625C32.375 17.6748 31.9689 18.6816 31.2461 19.424C30.5233 20.1663 29.543 20.5833 28.5208 20.5833C27.4986 20.5833 26.5183 20.1663 25.7955 19.424C25.0727 18.6816 24.6666 17.6748 24.6666 16.625C24.6666 15.5752 25.0727 14.5684 25.7955 13.826C26.5183 13.0837 27.4986 12.6667 28.5208 12.6667C29.543 12.6667 30.5233 13.0837 31.2461 13.826C31.9689 14.5684 32.375 15.5752 32.375 16.625ZM18.5 17.4167C20.5444 17.4167 22.505 18.2507 23.9506 19.7354C25.3962 21.2201 26.2083 23.2337 26.2083 25.3333V34.8333H10.7916V25.3333C10.7916 23.2337 11.6038 21.2201 13.0494 19.7354C14.495 18.2507 16.4556 17.4167 18.5 17.4167ZM7.70831 25.3333C7.70831 24.2361 7.86248 23.1768 8.15231 22.1762L7.89023 22.1983C6.56883 22.3473 5.3475 22.9921 4.46043 24.0089C3.57335 25.0257 3.08297 26.3431 3.08331 27.7083V34.8333H7.70831V25.3333ZM33.9166 34.8333V27.7083C33.9168 26.2966 33.3924 24.938 32.4503 23.9099C31.5083 22.8818 30.2197 22.2617 28.8476 22.1762C29.1359 23.1768 29.2916 24.2361 29.2916 25.3333V34.8333H33.9166Z" fill="#707070"/>
</svg>
