<svg width="273" height="24" viewBox="0 0 273 24" fill="none" xmlns="http://www.w3.org/2000/svg">
<path d="M0.68 18V0.719999H7.352C7.52 0.719999 7.708 0.727999 7.916 0.743999C8.132 0.751999 8.348 0.776 8.564 0.816C9.468 0.951999 10.232 1.268 10.856 1.764C11.488 2.252 11.964 2.868 12.284 3.612C12.612 4.356 12.776 5.18 12.776 6.084C12.776 6.98 12.612 7.8 12.284 8.544C11.956 9.288 11.476 9.908 10.844 10.404C10.22 10.892 9.46 11.204 8.564 11.34C8.348 11.372 8.132 11.396 7.916 11.412C7.708 11.428 7.52 11.436 7.352 11.436H2.444V18H0.68ZM2.444 9.756H7.304C7.448 9.756 7.616 9.748 7.808 9.732C8 9.716 8.188 9.688 8.372 9.648C8.964 9.52 9.448 9.276 9.824 8.916C10.208 8.556 10.492 8.128 10.676 7.632C10.868 7.136 10.964 6.62 10.964 6.084C10.964 5.548 10.868 5.032 10.676 4.536C10.492 4.032 10.208 3.6 9.824 3.24C9.448 2.88 8.964 2.636 8.372 2.508C8.188 2.468 8 2.444 7.808 2.436C7.616 2.42 7.448 2.412 7.304 2.412H2.444V9.756ZM22.4261 18.36C21.1381 18.36 20.0381 18.068 19.1261 17.484C18.2141 16.9 17.5141 16.092 17.0261 15.06C16.5381 14.028 16.2941 12.844 16.2941 11.508C16.2941 10.148 16.5421 8.956 17.0381 7.932C17.5341 6.908 18.2381 6.112 19.1501 5.544C20.0701 4.968 21.1621 4.68 22.4261 4.68C23.7221 4.68 24.8261 4.972 25.7381 5.556C26.6581 6.132 27.3581 6.936 27.8381 7.968C28.3261 8.992 28.5701 10.172 28.5701 11.508C28.5701 12.868 28.3261 14.064 27.8381 15.096C27.3501 16.12 26.6461 16.92 25.7261 17.496C24.8061 18.072 23.7061 18.36 22.4261 18.36ZM22.4261 16.668C23.8661 16.668 24.9381 16.192 25.6421 15.24C26.3461 14.28 26.6981 13.036 26.6981 11.508C26.6981 9.94 26.3421 8.692 25.6301 7.764C24.9261 6.836 23.8581 6.372 22.4261 6.372C21.4581 6.372 20.6581 6.592 20.0261 7.032C19.4021 7.464 18.9341 8.068 18.6221 8.844C18.3181 9.612 18.1661 10.5 18.1661 11.508C18.1661 13.068 18.5261 14.32 19.2461 15.264C19.9661 16.2 21.0261 16.668 22.4261 16.668ZM35.4284 18L31.4684 5.028L33.2324 5.04L36.3044 15.108L39.3884 5.04H40.9964L44.0804 15.108L47.1764 5.04H48.9284L44.9684 18H43.4324L40.1924 7.68L36.9644 18H35.4284ZM58.0256 18.36C56.7616 18.36 55.6656 18.08 54.7376 17.52C53.8176 16.96 53.1016 16.172 52.5896 15.156C52.0776 14.14 51.8216 12.948 51.8216 11.58C51.8216 10.164 52.0736 8.94 52.5776 7.908C53.0816 6.876 53.7896 6.08 54.7016 5.52C55.6216 4.96 56.7056 4.68 57.9536 4.68C59.2336 4.68 60.3256 4.976 61.2296 5.568C62.1336 6.152 62.8176 6.992 63.2816 8.088C63.7456 9.184 63.9576 10.492 63.9176 12.012H62.1176V11.388C62.0856 9.708 61.7216 8.44 61.0256 7.584C60.3376 6.728 59.3296 6.3 58.0016 6.3C56.6096 6.3 55.5416 6.752 54.7976 7.656C54.0616 8.56 53.6936 9.848 53.6936 11.52C53.6936 13.152 54.0616 14.42 54.7976 15.324C55.5416 16.22 56.5936 16.668 57.9536 16.668C58.8816 16.668 59.6896 16.456 60.3776 16.032C61.0736 15.6 61.6216 14.98 62.0216 14.172L63.6656 14.808C63.1536 15.936 62.3976 16.812 61.3976 17.436C60.4056 18.052 59.2816 18.36 58.0256 18.36ZM53.0696 12.012V10.536H62.9696V12.012H53.0696ZM68.5006 18V5.04H70.0846V8.16L69.7726 7.752C69.9166 7.368 70.1046 7.016 70.3366 6.696C70.5686 6.368 70.8206 6.1 71.0926 5.892C71.4286 5.596 71.8206 5.372 72.2686 5.22C72.7166 5.06 73.1686 4.968 73.6246 4.944C74.0806 4.912 74.4966 4.944 74.8726 5.04V6.696C74.4006 6.576 73.8846 6.548 73.3246 6.612C72.7646 6.676 72.2486 6.9 71.7766 7.284C71.3446 7.62 71.0206 8.024 70.8046 8.496C70.5886 8.96 70.4446 9.456 70.3726 9.984C70.3006 10.504 70.2646 11.02 70.2646 11.532V18H68.5006ZM84.3187 18.36C83.0547 18.36 81.9587 18.08 81.0307 17.52C80.1107 16.96 79.3947 16.172 78.8827 15.156C78.3707 14.14 78.1147 12.948 78.1147 11.58C78.1147 10.164 78.3667 8.94 78.8707 7.908C79.3747 6.876 80.0827 6.08 80.9947 5.52C81.9147 4.96 82.9987 4.68 84.2467 4.68C85.5267 4.68 86.6187 4.976 87.5227 5.568C88.4267 6.152 89.1107 6.992 89.5747 8.088C90.0387 9.184 90.2507 10.492 90.2107 12.012H88.4107V11.388C88.3787 9.708 88.0147 8.44 87.3187 7.584C86.6307 6.728 85.6227 6.3 84.2947 6.3C82.9027 6.3 81.8347 6.752 81.0907 7.656C80.3547 8.56 79.9867 9.848 79.9867 11.52C79.9867 13.152 80.3547 14.42 81.0907 15.324C81.8347 16.22 82.8867 16.668 84.2467 16.668C85.1747 16.668 85.9827 16.456 86.6707 16.032C87.3667 15.6 87.9147 14.98 88.3147 14.172L89.9587 14.808C89.4467 15.936 88.6907 16.812 87.6907 17.436C86.6987 18.052 85.5747 18.36 84.3187 18.36ZM79.3627 12.012V10.536H89.2627V12.012H79.3627ZM99.8217 18.36C98.6137 18.36 97.5817 18.06 96.7257 17.46C95.8697 16.852 95.2137 16.032 94.7577 15C94.3017 13.968 94.0737 12.804 94.0737 11.508C94.0737 10.22 94.2977 9.06 94.7457 8.028C95.2017 6.996 95.8537 6.18 96.7017 5.58C97.5497 4.98 98.5657 4.68 99.7497 4.68C100.966 4.68 101.99 4.976 102.822 5.568C103.654 6.16 104.282 6.972 104.706 8.004C105.138 9.028 105.354 10.196 105.354 11.508C105.354 12.796 105.142 13.96 104.718 15C104.294 16.032 103.67 16.852 102.846 17.46C102.022 18.06 101.014 18.36 99.8217 18.36ZM100.002 16.716C100.922 16.716 101.682 16.492 102.282 16.044C102.882 15.596 103.33 14.98 103.626 14.196C103.922 13.404 104.07 12.508 104.07 11.508C104.07 10.492 103.922 9.596 103.626 8.82C103.33 8.036 102.882 7.424 102.282 6.984C101.69 6.544 100.942 6.324 100.038 6.324C99.1097 6.324 98.3417 6.552 97.7337 7.008C97.1257 7.464 96.6737 8.084 96.3777 8.868C96.0897 9.652 95.9457 10.532 95.9457 11.508C95.9457 12.492 96.0937 13.38 96.3897 14.172C96.6937 14.956 97.1457 15.576 97.7457 16.032C98.3457 16.488 99.0977 16.716 100.002 16.716ZM104.07 18V8.244H103.878V0.719999H105.654V18H104.07ZM123.485 18.36C122.293 18.36 121.285 18.06 120.461 17.46C119.637 16.852 119.013 16.032 118.589 15C118.165 13.96 117.953 12.796 117.953 11.508C117.953 10.196 118.165 9.028 118.589 8.004C119.021 6.972 119.653 6.16 120.485 5.568C121.317 4.976 122.341 4.68 123.557 4.68C124.741 4.68 125.757 4.98 126.605 5.58C127.453 6.18 128.101 6.996 128.549 8.028C129.005 9.06 129.233 10.22 129.233 11.508C129.233 12.804 129.005 13.968 128.549 15C128.093 16.032 127.437 16.852 126.581 17.46C125.725 18.06 124.693 18.36 123.485 18.36ZM117.653 18V0.719999H119.429V8.244H119.237V18H117.653ZM123.305 16.716C124.209 16.716 124.961 16.488 125.561 16.032C126.161 15.576 126.609 14.956 126.905 14.172C127.209 13.38 127.361 12.492 127.361 11.508C127.361 10.532 127.213 9.652 126.917 8.868C126.621 8.084 126.169 7.464 125.561 7.008C124.961 6.552 124.197 6.324 123.269 6.324C122.365 6.324 121.613 6.544 121.013 6.984C120.421 7.424 119.977 8.036 119.681 8.82C119.385 9.596 119.237 10.492 119.237 11.508C119.237 12.508 119.385 13.404 119.681 14.196C119.977 14.98 120.425 15.596 121.025 16.044C121.625 16.492 122.385 16.716 123.305 16.716ZM135.003 23.76L137.511 16.956L137.547 18.972L131.871 5.04H133.743L138.399 16.692H137.631L141.927 5.04H143.727L136.767 23.76H135.003ZM154.696 18V0.719999H156.46V18H154.696ZM171.338 18V11.388C171.338 10.668 171.27 10.008 171.134 9.408C170.998 8.8 170.778 8.272 170.474 7.824C170.178 7.368 169.79 7.016 169.31 6.768C168.838 6.52 168.262 6.396 167.582 6.396C166.958 6.396 166.406 6.504 165.926 6.72C165.454 6.936 165.054 7.248 164.726 7.656C164.406 8.056 164.162 8.544 163.994 9.12C163.826 9.696 163.742 10.352 163.742 11.088L162.494 10.812C162.494 9.484 162.726 8.368 163.19 7.464C163.654 6.56 164.294 5.876 165.11 5.412C165.926 4.948 166.862 4.716 167.918 4.716C168.694 4.716 169.37 4.836 169.946 5.076C170.53 5.316 171.022 5.64 171.422 6.048C171.83 6.456 172.158 6.924 172.406 7.452C172.654 7.972 172.834 8.528 172.946 9.12C173.058 9.704 173.114 10.288 173.114 10.872V18H171.338ZM161.966 18V5.04H163.562V8.232H163.742V18H161.966ZM187.508 18V11.388C187.508 10.668 187.44 10.008 187.304 9.408C187.168 8.8 186.948 8.272 186.644 7.824C186.348 7.368 185.96 7.016 185.48 6.768C185.008 6.52 184.432 6.396 183.752 6.396C183.128 6.396 182.576 6.504 182.096 6.72C181.624 6.936 181.224 7.248 180.896 7.656C180.576 8.056 180.332 8.544 180.164 9.12C179.996 9.696 179.912 10.352 179.912 11.088L178.664 10.812C178.664 9.484 178.896 8.368 179.36 7.464C179.824 6.56 180.464 5.876 181.28 5.412C182.096 4.948 183.032 4.716 184.088 4.716C184.864 4.716 185.54 4.836 186.116 5.076C186.7 5.316 187.192 5.64 187.592 6.048C188 6.456 188.328 6.924 188.576 7.452C188.824 7.972 189.004 8.528 189.116 9.12C189.228 9.704 189.284 10.288 189.284 10.872V18H187.508ZM178.136 18V5.04H179.732V8.232H179.912V18H178.136ZM197.822 18L193.118 5.04H194.906L198.734 15.696L202.538 5.04H204.35L199.646 18H197.822ZM213.369 18.36C212.081 18.36 210.981 18.068 210.069 17.484C209.157 16.9 208.457 16.092 207.969 15.06C207.481 14.028 207.237 12.844 207.237 11.508C207.237 10.148 207.485 8.956 207.981 7.932C208.477 6.908 209.181 6.112 210.093 5.544C211.013 4.968 212.105 4.68 213.369 4.68C214.665 4.68 215.769 4.972 216.681 5.556C217.601 6.132 218.301 6.936 218.781 7.968C219.269 8.992 219.513 10.172 219.513 11.508C219.513 12.868 219.269 14.064 218.781 15.096C218.293 16.12 217.589 16.92 216.669 17.496C215.749 18.072 214.649 18.36 213.369 18.36ZM213.369 16.668C214.809 16.668 215.881 16.192 216.585 15.24C217.289 14.28 217.641 13.036 217.641 11.508C217.641 9.94 217.285 8.692 216.573 7.764C215.869 6.836 214.801 6.372 213.369 6.372C212.401 6.372 211.601 6.592 210.969 7.032C210.345 7.464 209.877 8.068 209.565 8.844C209.261 9.612 209.109 10.5 209.109 11.508C209.109 13.068 209.469 14.32 210.189 15.264C210.909 16.2 211.969 16.668 213.369 16.668ZM228.799 18.348C227.279 18.348 226.027 18.02 225.043 17.364C224.067 16.708 223.467 15.796 223.243 14.628L225.043 14.328C225.235 15.064 225.671 15.652 226.351 16.092C227.039 16.524 227.887 16.74 228.895 16.74C229.879 16.74 230.655 16.536 231.223 16.128C231.791 15.712 232.075 15.148 232.075 14.436C232.075 14.036 231.983 13.712 231.799 13.464C231.623 13.208 231.259 12.972 230.707 12.756C230.155 12.54 229.331 12.284 228.235 11.988C227.059 11.668 226.139 11.348 225.475 11.028C224.811 10.708 224.339 10.34 224.059 9.924C223.779 9.5 223.639 8.984 223.639 8.376C223.639 7.64 223.847 6.996 224.263 6.444C224.679 5.884 225.255 5.452 225.991 5.148C226.727 4.836 227.583 4.68 228.559 4.68C229.535 4.68 230.407 4.84 231.175 5.16C231.951 5.472 232.575 5.912 233.047 6.48C233.519 7.048 233.799 7.708 233.887 8.46L232.087 8.784C231.967 8.024 231.587 7.424 230.947 6.984C230.315 6.536 229.511 6.304 228.535 6.288C227.615 6.264 226.867 6.44 226.291 6.816C225.715 7.184 225.427 7.676 225.427 8.292C225.427 8.636 225.531 8.932 225.739 9.18C225.947 9.42 226.323 9.648 226.867 9.864C227.419 10.08 228.203 10.316 229.219 10.572C230.411 10.876 231.347 11.196 232.027 11.532C232.707 11.868 233.191 12.264 233.479 12.72C233.767 13.176 233.911 13.74 233.911 14.412C233.911 15.636 233.455 16.6 232.543 17.304C231.639 18 230.391 18.348 228.799 18.348ZM243.904 18.36C242.616 18.36 241.516 18.068 240.604 17.484C239.692 16.9 238.992 16.092 238.504 15.06C238.016 14.028 237.772 12.844 237.772 11.508C237.772 10.148 238.02 8.956 238.516 7.932C239.012 6.908 239.716 6.112 240.628 5.544C241.548 4.968 242.64 4.68 243.904 4.68C245.2 4.68 246.304 4.972 247.216 5.556C248.136 6.132 248.836 6.936 249.316 7.968C249.804 8.992 250.048 10.172 250.048 11.508C250.048 12.868 249.804 14.064 249.316 15.096C248.828 16.12 248.124 16.92 247.204 17.496C246.284 18.072 245.184 18.36 243.904 18.36ZM243.904 16.668C245.344 16.668 246.416 16.192 247.12 15.24C247.824 14.28 248.176 13.036 248.176 11.508C248.176 9.94 247.82 8.692 247.108 7.764C246.404 6.836 245.336 6.372 243.904 6.372C242.936 6.372 242.136 6.592 241.504 7.032C240.88 7.464 240.412 8.068 240.1 8.844C239.796 9.612 239.644 10.5 239.644 11.508C239.644 13.068 240.004 14.32 240.724 15.264C241.444 16.2 242.504 16.668 243.904 16.668ZM259.571 18.324C258.795 18.324 258.115 18.204 257.531 17.964C256.955 17.724 256.463 17.4 256.055 16.992C255.655 16.584 255.331 16.12 255.083 15.6C254.835 15.072 254.655 14.516 254.543 13.932C254.431 13.34 254.375 12.752 254.375 12.168V5.04H256.151V11.652C256.151 12.364 256.219 13.024 256.355 13.632C256.491 14.24 256.707 14.772 257.003 15.228C257.307 15.676 257.695 16.024 258.167 16.272C258.647 16.52 259.227 16.644 259.907 16.644C260.531 16.644 261.079 16.536 261.551 16.32C262.031 16.104 262.431 15.796 262.751 15.396C263.079 14.988 263.327 14.496 263.495 13.92C263.663 13.336 263.747 12.68 263.747 11.952L264.995 12.228C264.995 13.556 264.763 14.672 264.299 15.576C263.835 16.48 263.195 17.164 262.379 17.628C261.563 18.092 260.627 18.324 259.571 18.324ZM263.927 18V14.808H263.747V5.04H265.511V18H263.927ZM271.025 18V0.36H272.789V18H271.025Z" fill="url(#paint0_linear_1_4)"/>
<defs>
<linearGradient id="paint0_linear_1_4" x1="137" y1="-8" x2="137" y2="25" gradientUnits="userSpaceOnUse">
<stop stop-color="white"/>
<stop offset="1" stop-color="white" stop-opacity="0"/>
</linearGradient>
</defs>
</svg>
