<svg width="123" height="41" viewBox="0 0 123 41" fill="none" xmlns="http://www.w3.org/2000/svg">
<path d="M17.12 40.448C11.968 40.448 7.91733 38.9733 4.968 36.024C2.01867 33.0747 0.544 28.7627 0.544 23.088V0.799997H6.144V22.864C6.144 27.232 7.096 30.424 9 32.44C10.9413 34.456 13.6667 35.464 17.176 35.464C20.7227 35.464 23.448 34.456 25.352 32.44C27.2933 30.424 28.264 27.232 28.264 22.864V0.799997H33.696V23.088C33.696 28.7627 32.2213 33.0747 29.272 36.024C26.36 38.9733 22.3093 40.448 17.12 40.448ZM52.9049 40.336C50.4409 40.336 48.0889 40 45.8489 39.328C43.6462 38.656 41.9102 37.8347 40.6409 36.864L42.8809 32.608C44.1502 33.4667 45.7182 34.1947 47.5849 34.792C49.4515 35.3893 51.3555 35.688 53.2969 35.688C55.7982 35.688 57.5902 35.3333 58.6729 34.624C59.7929 33.9147 60.3529 32.9253 60.3529 31.656C60.3529 30.7227 60.0169 29.9947 59.3449 29.472C58.6729 28.9493 57.7769 28.5573 56.6569 28.296C55.5742 28.0347 54.3609 27.8107 53.0169 27.624C51.6729 27.4 50.3289 27.1387 48.9849 26.84C47.6409 26.504 46.4089 26.056 45.2889 25.496C44.1689 24.8987 43.2729 24.096 42.6009 23.088C41.9289 22.0427 41.5929 20.6613 41.5929 18.944C41.5929 17.152 42.0969 15.584 43.1049 14.24C44.1129 12.896 45.5315 11.8693 47.3609 11.16C49.2275 10.4133 51.4302 10.04 53.9689 10.04C55.9102 10.04 57.8702 10.2827 59.8489 10.768C61.8649 11.216 63.5075 11.8693 64.7769 12.728L62.4809 16.984C61.1369 16.088 59.7369 15.472 58.2809 15.136C56.8249 14.8 55.3689 14.632 53.9129 14.632C51.5609 14.632 49.8062 15.024 48.6489 15.808C47.4915 16.5547 46.9129 17.5253 46.9129 18.72C46.9129 19.728 47.2489 20.512 47.9209 21.072C48.6302 21.5947 49.5262 22.0053 50.6089 22.304C51.7289 22.6027 52.9609 22.864 54.3049 23.088C55.6489 23.2747 56.9929 23.536 58.3369 23.872C59.6809 24.1707 60.8942 24.6 61.9769 25.16C63.0969 25.72 63.9929 26.504 64.6649 27.512C65.3742 28.52 65.7289 29.864 65.7289 31.544C65.7289 33.336 65.2062 34.8853 64.1609 36.192C63.1155 37.4987 61.6409 38.5253 59.7369 39.272C57.8329 39.9813 55.5555 40.336 52.9049 40.336ZM85.6636 40.336C82.4902 40.336 79.6902 39.6827 77.2636 38.376C74.8742 37.0693 73.0076 35.2773 71.6636 33C70.3569 30.7227 69.7036 28.1093 69.7036 25.16C69.7036 22.2107 70.3382 19.5973 71.6076 17.32C72.9142 15.0427 74.6876 13.2693 76.9276 12C79.2049 10.6933 81.7622 10.04 84.5996 10.04C87.4742 10.04 90.0129 10.6747 92.2156 11.944C94.4182 13.2133 96.1356 15.0053 97.3676 17.32C98.6369 19.5973 99.2716 22.2667 99.2716 25.328C99.2716 25.552 99.2529 25.8133 99.2156 26.112C99.2156 26.4107 99.1969 26.6907 99.1596 26.952H73.9036V23.088H96.3596L94.1756 24.432C94.2129 22.528 93.8209 20.8293 92.9996 19.336C92.1782 17.8427 91.0396 16.6853 89.5836 15.864C88.1649 15.0053 86.5036 14.576 84.5996 14.576C82.7329 14.576 81.0716 15.0053 79.6156 15.864C78.1596 16.6853 77.0209 17.8613 76.1996 19.392C75.3782 20.8853 74.9676 22.6027 74.9676 24.544V25.44C74.9676 27.4187 75.4156 29.192 76.3116 30.76C77.2449 32.2907 78.5329 33.4853 80.1756 34.344C81.8182 35.2027 83.7036 35.632 85.8316 35.632C87.5862 35.632 89.1729 35.3333 90.5916 34.736C92.0476 34.1387 93.3169 33.2427 94.3996 32.048L97.3676 35.52C96.0236 37.088 94.3436 38.2827 92.3276 39.104C90.3489 39.9253 88.1276 40.336 85.6636 40.336ZM106.737 40V10.32H111.889V18.384L111.385 16.368C112.206 14.3147 113.587 12.7467 115.529 11.664C117.47 10.5813 119.859 10.04 122.697 10.04V15.248C122.473 15.2107 122.249 15.192 122.025 15.192C121.838 15.192 121.651 15.192 121.465 15.192C118.59 15.192 116.313 16.0507 114.633 17.768C112.953 19.4853 112.113 21.968 112.113 25.216V40H106.737Z" fill="url(#paint0_linear_4_27)"/>
<defs>
<linearGradient id="paint0_linear_4_27" x1="60" y1="-14" x2="60" y2="54" gradientUnits="userSpaceOnUse">
<stop stop-color="#EBFF00"/>
<stop offset="1" stop-color="white" stop-opacity="0"/>
</linearGradient>
</defs>
</svg>
