<svg width="105" height="20" viewBox="0 0 105 20" fill="none" xmlns="http://www.w3.org/2000/svg">
<path d="M5.9458 19.2441C3.78923 19.2441 1.85645 18.7477 0.147461 17.7549L0.953125 15.1304C1.7181 15.5535 2.54818 15.8953 3.44336 16.1558C4.34668 16.4162 5.22559 16.5464 6.08008 16.5464C7.12988 16.5464 7.92334 16.3226 8.46045 15.875C8.99756 15.4193 9.26611 14.7682 9.26611 13.9219C9.26611 12.7988 8.51742 12.0216 7.02002 11.5903C6.91423 11.5578 6.61719 11.4723 6.12891 11.334C5.64062 11.1875 5.18083 11.0492 4.74951 10.9189C4.32633 10.7806 4.02116 10.6748 3.83398 10.6016C1.43327 9.75521 0.23291 8.17643 0.23291 5.86523C0.23291 4.24577 0.806641 2.99658 1.9541 2.11768C3.1097 1.23877 4.63965 0.799316 6.54395 0.799316C8.70052 0.799316 10.5601 1.24284 12.1226 2.12988L11.1216 4.54688C9.52653 3.83073 8.04541 3.47266 6.67822 3.47266C5.69352 3.47266 4.94889 3.64762 4.44434 3.99756C3.94792 4.33936 3.68343 4.91309 3.65088 5.71875C3.65088 6.71159 4.14323 7.35856 5.12793 7.65967C5.32324 7.73291 5.80339 7.8916 6.56836 8.13574C7.33333 8.37988 7.82975 8.53857 8.05762 8.61182C9.69336 9.14893 10.8612 9.81624 11.561 10.6138C12.269 11.4113 12.623 12.5221 12.623 13.9463C12.623 15.6471 12.0208 16.9574 10.8164 17.877C9.61198 18.7884 7.98844 19.2441 5.9458 19.2441ZM15.1499 19L15.1499 0.640625L18.3481 0.433105L18.3481 4.30273C18.3481 4.48991 18.3359 5.01074 18.3115 5.86523C18.2871 6.71159 18.2749 7.1429 18.2749 7.15918C19.341 5.88965 20.7733 5.25488 22.5718 5.25488C24.0692 5.25488 25.2288 5.6862 26.0508 6.54883C26.8809 7.40332 27.2959 8.72168 27.2959 10.5039V19H24.0977V10.8579C24.0977 9.75928 23.9227 8.95361 23.5728 8.44092C23.2228 7.92822 22.6287 7.67188 21.7905 7.67188C21.0744 7.67188 20.4396 7.85498 19.8862 8.22119C19.3328 8.57926 18.9178 9.04313 18.6411 9.61279C18.4458 10.3615 18.3481 11.3381 18.3481 12.5425V19H15.1499ZM36.6587 19.2563C34.5021 19.2563 32.8216 18.6379 31.6172 17.4009C30.4209 16.1558 29.8228 14.4386 29.8228 12.2495C29.8228 10.1174 30.3883 8.42057 31.5195 7.15918C32.6507 5.89779 34.1929 5.26302 36.146 5.25488C37.9933 5.25488 39.4256 5.83268 40.4429 6.98828C41.4683 8.14388 41.981 9.6779 41.981 11.5903C41.981 11.7287 41.9769 11.9525 41.9688 12.2617C41.9688 12.571 41.9688 12.7988 41.9688 12.9453H33.0454C33.078 14.1986 33.4198 15.1711 34.0708 15.8628C34.73 16.5464 35.6333 16.8882 36.7808 16.8882C38.2456 16.8882 39.6535 16.5057 41.0044 15.7407L41.4561 18.0112C40.1133 18.8413 38.5142 19.2563 36.6587 19.2563ZM33.1064 10.9312H38.9658C38.9658 9.84066 38.7176 9.00244 38.2212 8.4165C37.7248 7.83057 37.0371 7.5376 36.1582 7.5376C35.3363 7.5376 34.6405 7.82243 34.0708 8.39209C33.5093 8.96175 33.1878 9.80811 33.1064 10.9312ZM49.293 19.1831C48.3734 19.1831 47.6084 19.0773 46.998 18.8657C46.3958 18.646 45.9198 18.3001 45.5698 17.8281C45.2199 17.3561 44.9757 16.7946 44.8374 16.1436C44.6991 15.4925 44.6299 14.6828 44.6299 13.7144V0.640625L47.8281 0.433105V13.6533C47.8281 14.8577 47.9705 15.6756 48.2554 16.1069C48.5402 16.5301 49.0936 16.7417 49.9155 16.7417C50.3224 16.7417 50.8392 16.6969 51.4658 16.6074L51.5513 18.8901C51.5431 18.8901 51.4414 18.9105 51.2461 18.9512C51.0589 18.9919 50.8758 19.0244 50.6968 19.0488C50.5259 19.0814 50.3062 19.1099 50.0376 19.1343C49.769 19.1668 49.5208 19.1831 49.293 19.1831ZM58.0576 19.2563C56.3079 19.2563 54.9326 18.6134 53.9316 17.3276C52.9307 16.0418 52.4302 14.3247 52.4302 12.1763C52.4302 10.0929 52.9266 8.42057 53.9194 7.15918C54.9204 5.88965 56.2957 5.25488 58.0454 5.25488C59.9497 5.25488 61.2965 5.93034 62.0859 7.28125C62.0046 6.48372 61.9639 5.71468 61.9639 4.97412V0.640625L65.1621 0.433105V19H62.3911L62.0371 17.1689C61.8988 17.3887 61.7686 17.5799 61.6465 17.7427C61.5326 17.8973 61.3617 18.0804 61.1338 18.292C60.9059 18.4954 60.6577 18.6623 60.3892 18.7925C60.1287 18.9146 59.7951 19.0203 59.3882 19.1099C58.9894 19.2075 58.5459 19.2563 58.0576 19.2563ZM58.8145 16.8271C60.9629 16.8271 62.0534 15.3664 62.0859 12.4448C62.0859 10.7928 61.8092 9.58838 61.2559 8.83154C60.7025 8.07471 59.8765 7.69629 58.7778 7.69629C57.8175 7.69629 57.0485 8.08285 56.4707 8.85596C55.901 9.62093 55.6162 10.7521 55.6162 12.2495C55.6162 13.7388 55.901 14.874 56.4707 15.6553C57.0485 16.4365 57.8298 16.8271 58.8145 16.8271ZM74.6226 19.2563C72.466 19.2563 70.7855 18.6379 69.5811 17.4009C68.3848 16.1558 67.7866 14.4386 67.7866 12.2495C67.7866 10.1174 68.3522 8.42057 69.4834 7.15918C70.6146 5.89779 72.1567 5.26302 74.1099 5.25488C75.9572 5.25488 77.3895 5.83268 78.4067 6.98828C79.4321 8.14388 79.9448 9.6779 79.9448 11.5903C79.9448 11.7287 79.9408 11.9525 79.9326 12.2617C79.9326 12.571 79.9326 12.7988 79.9326 12.9453L71.0093 12.9453C71.0418 14.1986 71.3836 15.1711 72.0347 15.8628C72.6938 16.5464 73.5972 16.8882 74.7446 16.8882C76.2095 16.8882 77.6174 16.5057 78.9683 15.7407L79.4199 18.0112C78.0771 18.8413 76.478 19.2563 74.6226 19.2563ZM71.0703 10.9312L76.9297 10.9312C76.9297 9.84066 76.6815 9.00244 76.1851 8.4165C75.6886 7.83057 75.001 7.5376 74.1221 7.5376C73.3001 7.5376 72.6043 7.82243 72.0347 8.39209C71.4731 8.96175 71.1517 9.80811 71.0703 10.9312ZM82.5693 19V5.58447H85.2549L85.6699 7.63525C86.5488 6.22738 87.8224 5.52344 89.4907 5.52344C89.8407 5.52344 90.1255 5.53971 90.3452 5.57227L90.2964 8.24561C89.9709 8.19678 89.6331 8.17236 89.2832 8.17236C88.1032 8.17236 87.2202 8.48568 86.6343 9.1123C86.0565 9.73893 85.7676 10.6097 85.7676 11.7246V19H82.5693ZM100.99 18.9878V4.10742C100.876 4.18066 100.347 4.41667 99.4028 4.81543C98.467 5.20605 97.938 5.41764 97.8159 5.4502V3.00879C98.0112 2.91927 98.6297 2.6141 99.6714 2.09326C100.713 1.56429 101.287 1.26318 101.393 1.18994L104.078 1.18994V18.9878H100.99Z" fill="url(#paint0_linear_67_2)"/>
<defs>
<linearGradient id="paint0_linear_67_2" x1="52.5" y1="-7" x2="52.5" y2="25" gradientUnits="userSpaceOnUse">
<stop stop-color="white"/>
<stop offset="1" stop-color="white" stop-opacity="0"/>
</linearGradient>
</defs>
</svg>
